<svg xmlns="http://www.w3.org/2000/svg" xmlns:xlink="http://www.w3.org/1999/xlink" width="111" height="105"><defs><path id="a" d="M0 .326h110.18V105H0z"/></defs><g fill="none" fill-rule="evenodd"><path fill="#ACA7C6" d="M110 28.001v-.002zM55 8.001v-.002z"/><g><mask id="b" fill="#fff"><use xlink:href="#a"/></mask><path fill="#ACA7C6" d="M7.707 91.975c0 .94.262 1.884.787 2.75.979 1.616 2.62 2.542 4.505 2.542h84.186c1.887 0 3.53-.926 4.508-2.545.982-1.62 1.042-3.506.172-5.181L59.796 10.954c-.949-1.832-2.697-2.897-4.702-2.897s-3.757 1.065-4.68 2.851l-42.12 78.68a5.2 5.2 0 0 0-.587 2.387M110.18 92c0 2.335-.636 4.657-1.895 6.737-2.374 3.923-6.523 6.263-11.1 6.263H13c-4.573 0-8.723-2.34-11.097-6.263-2.377-3.924-2.535-8.698-.426-12.763L43.598 7.296A12.91 12.91 0 0 1 55.094.324c4.863 0 9.278 2.689 11.523 7.02l42.064 78.584A13.16 13.16 0 0 1 110.18 92" mask="url(#b)"/></g><path fill="#ACA7C6" d="M54.983 69.451c2.044-.058 3.63-1.465 3.936-3.423L62.73 37.06a7.77 7.77 0 0 0-1.763-6.259 7.71 7.71 0 0 0-5.875-2.714 7.7 7.7 0 0 0-6.015 2.879 7.73 7.73 0 0 0-1.546 6.496l3.479 28.882c.39 1.82 1.973 3.107 3.918 3.107zM55.092 74.42c-3.721 0-6.744 3.032-6.744 6.761s3.023 6.762 6.744 6.762c3.718 0 6.74-3.033 6.74-6.762s-3.022-6.762-6.74-6.762"/></g></svg>