<svg xmlns="http://www.w3.org/2000/svg" width="29" height="30"><g fill="none" fill-rule="evenodd"><path fill="#211256" d="M8.413 23.23c-.503 0-.978-.193-1.34-.548a1.97 1.97 0 0 1-.594-1.38 1.97 1.97 0 0 1 .54-1.402l1.83-1.934a8.288 8.288 0 0 0 2.789 2.732l-1.828 1.93a1.9 1.9 0 0 1-1.358.602zM22.385 8.511a1.97 1.97 0 0 1-.539 1.403l-1.833 1.936a8.6 8.6 0 0 0-1.232-1.537 8.4 8.4 0 0 0-1.555-1.197l1.829-1.93a1.92 1.92 0 0 1 2.737-.055c.373.364.583.854.593 1.38m3.9-6.125C24.668.805 22.529-.053 20.288.003a8.3 8.3 0 0 0-5.904 2.618L2.347 15.335A8.57 8.57 0 0 0 .002 21.43a8.56 8.56 0 0 0 2.577 5.999 8.3 8.3 0 0 0 5.997 2.385 8.28 8.28 0 0 0 5.893-2.608 680 680 0 0 0 4.365-4.544c.408-.43 1.27-1.363 2-2.152.529-.573.988-1.07 1.152-1.245l4.532-4.786c3.217-3.4 3.113-8.825-.232-12.093"/><path fill="#4CE0AA" d="M15.635 3.845 11.17 8.567a7.8 7.8 0 0 1 4.111.065l2.521-2.67a3.637 3.637 0 0 1 5.194-.102 3.78 3.78 0 0 1 .102 5.277l-4.531 4.787a3.64 3.64 0 0 1-5.195.103c-.477-.466-.76-1.096-.934-1.7-.007-.002-.086-.175-.094-.177-.432.06-.78.41-1.111.76l-1.33 1.404c.34.756.76 1.306 1.384 1.915a6.615 6.615 0 0 0 9.447-.187l4.532-4.787c2.553-2.697 2.47-7.003-.185-9.597a6.614 6.614 0 0 0-9.446.187"/><path fill="#4CE0AA" d="m13.562 21.207-2.5 2.644a3.64 3.64 0 0 1-5.195.103c-1.46-1.426-1.505-3.794-.1-5.278l4.531-4.786a3.636 3.636 0 0 1 5.194-.104c.6.586.899 1.102 1.019 1.878.342.092.838-.13 1.235-.465.353-.3.914-.903 1.374-1.416-.346-.833-.87-1.541-1.543-2.198a6.614 6.614 0 0 0-9.446.187l-4.532 4.786c-2.553 2.698-2.471 7.004.184 9.598a6.614 6.614 0 0 0 9.447-.186s3.74-3.892 4.557-4.78c-1.532.528-3.107.32-4.225.017"/></g></svg>