<svg xmlns="http://www.w3.org/2000/svg" id="Camada_1" viewBox="0 0 100 70"><defs><style>.cls-2{fill:#ea267f}.cls-4{fill:#fff}.cls-6{fill:#88ffd7}.cls-8{fill:#211256}.cls-9{opacity:.3}.cls-4{fill-rule:evenodd}</style></defs><path d="M94.12 9.03a10.3 10.3 0 0 0-5.55-1.71c-2.14 0-4.25.77-5.96 2.19l-.22.2c-.16.15-.3.31-.42.5l-5.06 8.17c-1.02-2-1.92-4-2.67-5.96-.04-.12-.09-.23-.14-.34a4.6 4.6 0 0 0-2.62-2.38 4.5 4.5 0 0 0-3.52.19c-1.23.6-5.47 2.44-9.27 4.09q-.375-.9-.72-1.8a4.61 4.61 0 0 0-4.3-2.98c-.68 0-1.37.16-1.98.46a217 217 0 0 1-6.35 2.94c-.08-.2-.15-.39-.22-.58a4.35 4.35 0 0 0-4.07-2.83c-.64 0-1.28.15-1.86.43-2.06 1-12.32 5.42-21.02 9.17-5.55 2.39-9.27 3.99-10.4 4.5-1.88.85-2.91 2.94-2.47 4.97C8.23 41.4 17.18 55.19 27.06 61.8c.71.48 1.54.74 2.41.74.61 0 1.23-.13 1.76-.38l5.1-2.27c1.09.92 2.16 1.73 3.2 2.42.76.51 1.63.78 2.53.78.66 0 1.33-.14 1.9-.41l7.66-3.41c1.39 1.24 2.81 2.34 4.21 3.28.75.5 1.63.77 2.55.77.65 0 1.28-.14 1.85-.4l19.73-8.78c.67-.3 1.25-.77 1.68-1.32.29-.35.98-1.22 1.88-2.39a31.3 31.3 0 0 0 4.49-6.16c.88-1.29 1.55-2.37 1.99-3.2.95-1.76.67-3.9-.7-5.34l-.43-.46 9.44-14.09.26-.39c.19-.28.32-.6.38-.94l.08-.44c.85-4.47-1.94-8.51-4.9-10.38Z" style="fill:#fff"/><path d="M29.44 59.31c-.22 0-.44-.07-.63-.19-9.26-6.2-17.66-19.18-20.41-31.57-.12-.54.16-1.09.66-1.31 1.17-.53 5.43-2.36 10.37-4.49 8.45-3.64 18.97-8.17 21.13-9.21.15-.08.32-.11.49-.11.47 0 .9.3 1.06.74 4.06 10.67 10.82 19.18 15.78 24.44.32.34.39.86.17 1.27-1.77 3.31-7.68 10.88-8.02 11.23-.1.13-.23.24-.38.31l-19.74 8.79c-.15.07-.3.1-.46.1z" class="cls-4"/><path d="M41.04 13.22c.15 0 .28.09.33.23 4.12 10.85 11.02 19.48 15.95 24.71.08.09.1.22.05.33-1.76 3.29-7.61 10.77-7.89 11.05-.05.05-.08.12-.15.15l-19.75 8.8s-.1.03-.15.03a.33.33 0 0 1-.19-.06c-8.71-5.83-17.28-18.51-20.09-31.08-.04-.17.05-.34.2-.41 3.13-1.41 28.03-12.03 31.52-13.71q.075-.03.15-.03m0-1.6c-.29 0-.57.07-.83.19-2.16 1.04-12.68 5.58-21.12 9.21-4.93 2.12-9.19 3.96-10.36 4.49-.84.38-1.3 1.31-1.1 2.22C10.42 40.31 18.95 53.5 28.36 59.8c.32.21.69.33 1.07.33.28 0 .55-.06.8-.17l19.72-8.78c.28-.13.52-.32.7-.57a.3.3 0 0 1-.07.08c.35-.36 6.29-7.95 8.15-11.41.39-.72.27-1.61-.29-2.2-4.91-5.21-11.61-13.64-15.62-24.18-.29-.76-1-1.26-1.8-1.26Z" class="cls-8"/><path d="M28.74 45.78c-2.44 0-4.29-.89-5.61-2.71l-.03-.04-.02-.04c-.67-1.31-1.2-2.69-1.59-4.12-.48-1.75-.2-4.54-.19-4.66v-.06c.9-4.69 5.45-8.51 10.14-8.51 2.34.03 4.59.93 6.31 2.54 2.43 2.33 7.42 11.37 6.06 14.81-.36.93-1.27 1.51-2.25 1.45-.39 0-.77-.06-1.14-.15-.49-.11-.99-.17-1.5-.16-1.49 0-3.13.39-4.86.8s-3.61.85-5.33.85Z" class="cls-2"/><path d="M31.46 26.31c2.18.02 4.28.87 5.87 2.37 3 2.85 9.15 15.1 4.25 15.1-.33 0-.67-.05-.99-.13q-.81-.195-1.65-.18c-3.16 0-6.92 1.66-10.2 1.66-1.95 0-3.72-.59-5.08-2.45-.65-1.28-1.16-2.62-1.53-4-.46-1.65-.17-4.42-.17-4.42.83-4.33 4.99-7.99 9.49-7.99m0-1.33c-5.07 0-9.81 3.97-10.79 9.04v.12c-.03.31-.3 3.07.21 4.91.4 1.47.95 2.9 1.65 4.26l.04.08.05.07c1.47 2 3.48 2.99 6.14 2.99 1.8 0 3.68-.44 5.49-.87 1.7-.4 3.3-.78 4.71-.78.45 0 .9.04 1.34.14.42.11.86.17 1.3.17 1.25.07 2.41-.69 2.86-1.87.85-2.16-.4-5.72-1.61-8.33-1.38-2.99-3.23-5.89-4.62-7.2h-.02a10 10 0 0 0-6.75-2.71l-.02-.03Z" class="cls-8"/><path d="M23.39 42.92c-.22 0-.43-.09-.59-.25-1.54-1.55-2.11-4.94-2.24-7.02l-2.73-.21a.79.79 0 0 1-.72-.7c-.28-2.25 1.38-4.4 1.45-4.49.15-.19.38-.3.62-.3.14 0 .28.04.41.11.51.31 1.24.84 1.92 1.36 1.37-2.75 4.36-4.96 6.31-5.08l.1 1.59c.35-.02.64-.28.7-.63v.1c0 1.03-.39 2.02-1.09 2.76.45.48.86 1.01 1.22 1.56.22.34.14.8-.17 1.05l-.33.28c-.49.39-.99.8-1.5 1.17.55.71 1.13 1.54 1.28 2.42a.8.8 0 0 1-.39.83c-.78.49-1.62.89-2.49 1.2.33 1.1.17 2.3-.42 3.28-.15.23-.66.97-1.32.97v-.02Z" class="cls-6"/><path d="M27.85 27.14c-.18 0 .36 1.54-1.49 2.99.63.61 1.2 1.29 1.69 2.03-.79.64-1.65 1.33-2.49 1.91.61.78 1.49 1.77 1.65 2.72-1.03.59-1.96 1.1-3.12 1.31 1.13 2.54-.41 4.02-.7 4.02h-.04c-1.41-1.42-2.01-5.03-2.04-7.2l-3.43-.27c-.24-1.95 1.29-3.9 1.29-3.9.91.6 1.79 1.25 2.64 1.94.94-2.86 4.1-5.43 6.03-5.55m0-1.59h-.12c-2.2.15-4.95 2.23-6.49 4.7-.52-.38-.94-.67-1.27-.87-.68-.41-1.56-.25-2.05.38-.2.25-1.93 2.55-1.62 5.08.09.75.7 1.33 1.44 1.39l2.05.16c.21 2.26.88 5.28 2.42 6.84.31.31.72.48 1.15.48 1.02 0 1.73-.94 1.98-1.33.59-.95.82-2.08.66-3.19.68-.29 1.34-.62 1.98-1 .58-.33.89-1 .77-1.66-.16-.77-.48-1.5-.96-2.13l.89-.71.33-.27c.63-.51.79-1.42.35-2.11-.26-.4-.55-.79-.86-1.16.53-.76.83-1.66.85-2.59a1.6 1.6 0 0 0-1.47-2.02h-.06Zm0 3.19" class="cls-8"/><ellipse cx="30.19" cy="41.3" class="cls-8" rx=".86" ry=".87"/><ellipse cx="31.63" cy="35.46" class="cls-8" rx=".86" ry=".87"/><ellipse cx="32.72" cy="30.38" class="cls-8" rx=".86" ry=".87"/><ellipse cx="35.41" cy="40.25" class="cls-8" rx=".86" ry=".87"/><ellipse cx="36.7" cy="34.56" class="cls-8" rx=".86" ry=".87"/><g class="cls-9"><path d="M58.07 46.59c-3.23-.88-24.45 10.06-24.45 10.06s-11.37-9.32-16.84-31.07l24.83-10.5 16.45 31.5Z" class="cls-8"/></g><path d="M42.06 59.6c-.22 0-.44-.07-.63-.19-9.26-6.2-17.65-19.18-20.42-31.57-.12-.54.16-1.09.66-1.31 1.17-.53 5.42-2.36 10.34-4.48 8.46-3.66 18.99-8.18 21.16-9.23a1.131 1.131 0 0 1 1.55.64C58.78 24.13 65.54 32.64 70.5 37.9c.32.34.39.86.16 1.27-1.77 3.33-7.67 10.88-8.02 11.23-.1.14-.23.24-.39.31L42.51 59.5c-.15.07-.31.1-.47.1Z" class="cls-4"/><path d="M53.65 13.5c.15 0 .28.09.33.23C58.1 24.58 65 33.21 69.93 38.44c.08.09.1.22.04.33-1.76 3.29-7.61 10.76-7.88 11.05-.05.05-.08.12-.15.15L42.2 58.75c-.11.05-.23.04-.33-.03-8.71-5.83-17.28-18.51-20.08-31.08-.04-.17.05-.34.2-.41 3.13-1.41 28.03-12.03 31.52-13.71q.075-.03.15-.03m0-1.6c-.29 0-.57.07-.83.19-7.66 3.7-10.74 4.74-21.1 9.21-4.95 2.12-9.19 3.96-10.37 4.49-.84.38-1.3 1.31-1.1 2.22 2.8 12.58 11.34 25.76 20.75 32.06.55.37 1.26.43 1.87.15l19.72-8.78c.28-.13.52-.32.71-.57l-.07.08c.35-.36 6.29-7.95 8.15-11.41.39-.72.27-1.61-.29-2.2-4.91-5.21-11.61-13.64-15.62-24.18-.29-.75-1-1.25-1.8-1.26h-.01Z" class="cls-8"/><path d="M42.06 60.66c-.43 0-.85-.13-1.21-.37-9.47-6.32-18.05-19.59-20.86-32.22-.23-1.03.29-2.08 1.25-2.52 1.17-.53 5.35-2.33 10.2-4.42l.17-.08c3.49-1.5 6.12-2.6 8.44-3.57 4.57-1.91 7.58-3.17 12.67-5.63.29-.14.62-.22.94-.22.91 0 1.72.57 2.05 1.43 3.99 10.5 10.67 18.9 15.56 24.09.64.68.77 1.69.33 2.51-1.77 3.31-7.27 10.39-8.1 11.37-.21.28-.49.5-.8.65l-19.72 8.78c-.28.13-.59.2-.91.2Zm11.6-48.49c-.25 0-.49.06-.72.17-5.09 2.46-8.12 3.72-12.69 5.66-2.31.97-4.95 2.07-8.43 3.57l-.17.08c-4.84 2.07-9.03 3.87-10.19 4.4-.73.33-1.13 1.13-.95 1.92 2.79 12.51 11.28 25.62 20.64 31.9.48.32 1.09.36 1.61.13l19.73-8.78c.21-.1.41-.25.56-.43.36-.38 6.26-7.92 8.1-11.35.33-.62.23-1.38-.25-1.89-4.93-5.23-11.65-13.68-15.67-24.27a1.68 1.68 0 0 0-1.57-1.08Zm-11.6 46.89c-.12 0-.23-.04-.33-.1-9.16-6.13-17.48-18.96-20.2-31.25a.62.62 0 0 1 .35-.71c1.17-.53 5.43-2.36 10.36-4.49 8.45-3.64 18.97-8.17 21.15-9.23.31-.14.68 0 .83.31v.02c4.09 10.75 10.88 19.32 15.89 24.62.17.18.2.45.08.67-1.75 3.27-7.58 10.76-7.91 11.11-.06.08-.13.15-.22.2l-19.74 8.78a.5.5 0 0 1-.27.05Zm-.04-.55h.08l19.74-8.78s.04-.07.07-.09c.19-.2 6.07-7.68 7.84-10.98-5.03-5.37-11.87-14-16-24.83a.083.083 0 0 0-.1-.06h-.02c-2.19 1.06-12.72 5.59-21.18 9.23-4.93 2.12-9.18 3.96-10.35 4.48-.04.02-.07.06-.06.11 2.71 12.15 10.92 24.86 19.97 30.92Z" class="cls-8"/><path d="M42.83 45.46c-2.44 0-4.27-.89-5.61-2.71l-.03-.04-.02-.04c-.67-1.31-1.2-2.69-1.59-4.11-.48-1.75-.2-4.54-.19-4.66v-.06c.9-4.69 5.45-8.51 10.14-8.51 2.34.03 4.59.93 6.31 2.54 2.43 2.33 7.42 11.37 6.06 14.82-.36.92-1.27 1.51-2.25 1.44-.39 0-.77-.06-1.14-.15-.49-.11-1-.17-1.5-.16-1.49 0-3.13.39-4.86.8s-3.61.85-5.33.85Z" class="cls-2"/><path d="M45.55 25.99c2.18.02 4.28.87 5.87 2.37 2.99 2.85 9.15 15.1 4.25 15.1-.33 0-.67-.05-.99-.13q-.81-.195-1.65-.18c-3.16 0-6.92 1.66-10.2 1.66-1.95 0-3.72-.58-5.08-2.45-.64-1.27-1.16-2.6-1.53-3.97-.46-1.64-.17-4.42-.17-4.42.83-4.33 4.99-7.97 9.49-7.97m0-1.33c-5.07 0-9.81 3.97-10.79 9.05v.12c-.03.31-.3 3.07.21 4.91.4 1.47.95 2.9 1.65 4.26l.04.08.05.07c1.47 2 3.48 2.99 6.14 2.99 1.8 0 3.68-.44 5.49-.87 1.69-.4 3.3-.78 4.71-.78.45 0 .9.04 1.35.15.42.11.86.16 1.3.17 1.25.07 2.41-.69 2.87-1.87.85-2.16-.41-5.72-1.61-8.32-1.38-2.99-3.23-5.89-4.62-7.2a10.04 10.04 0 0 0-6.75-2.71z" class="cls-8"/><path d="M37.47 42.6c-.22 0-.43-.09-.59-.25-1.54-1.55-2.11-4.94-2.24-7.02l-2.73-.22a.79.79 0 0 1-.72-.7c-.28-2.26 1.38-4.4 1.45-4.49a.779.779 0 0 1 1.03-.18c.51.31 1.23.84 1.92 1.36 1.37-2.75 4.36-4.96 6.31-5.08l.1 1.59c.35-.02.64-.28.7-.63v.1c0 1.03-.39 2.02-1.1 2.76.45.49.86 1.01 1.22 1.57a.8.8 0 0 1-.17 1.05l-.33.27c-.49.4-.99.8-1.5 1.17.56.71 1.14 1.54 1.28 2.42a.8.8 0 0 1-.39.83c-.78.48-1.61.88-2.48 1.18.33 1.1.17 2.29-.42 3.27-.15.23-.66.98-1.32.98h-.01Z" class="cls-6"/><path d="M41.94 26.81c-.18 0 .36 1.54-1.49 2.99.63.62 1.2 1.3 1.69 2.03-.79.64-1.65 1.33-2.49 1.91.61.78 1.49 1.77 1.65 2.72-1.03.59-1.96 1.1-3.12 1.31 1.13 2.54-.41 4.02-.7 4.02h-.04c-1.41-1.42-2.01-5.03-2.04-7.2l-3.43-.27c-.24-1.95 1.29-3.9 1.29-3.9.68.42 1.81 1.27 2.65 1.94.94-2.86 4.1-5.43 6.03-5.55m0-1.6h-.12c-2.2.15-4.95 2.23-6.49 4.7-.52-.38-.94-.67-1.27-.87-.25-.15-.53-.23-.81-.23-.48 0-.94.22-1.24.61-.2.26-1.93 2.55-1.62 5.09.09.75.7 1.33 1.45 1.39l2.05.16c.21 2.26.88 5.29 2.42 6.84.31.31.72.48 1.15.48 1.02 0 1.72-.94 1.98-1.33.59-.95.82-2.08.66-3.19.68-.29 1.34-.62 1.98-1 .58-.33.89-1 .77-1.66-.16-.77-.49-1.5-.96-2.13.3-.23.6-.47.89-.71l.33-.27c.63-.51.78-1.42.35-2.11-.26-.41-.54-.79-.85-1.16.53-.76.83-1.66.85-2.59q.06-.21.06-.42c0-.86-.67-1.56-1.52-1.6zm0 3.19" class="cls-8"/><ellipse cx="44.27" cy="40.97" class="cls-8" rx=".86" ry=".87"/><ellipse cx="45.72" cy="35.13" class="cls-8" rx=".86" ry=".87"/><ellipse cx="46.8" cy="30.06" class="cls-8" rx=".86" ry=".87"/><ellipse cx="49.5" cy="39.92" class="cls-8" rx=".86" ry=".87"/><ellipse cx="50.78" cy="34.24" class="cls-8" rx=".86" ry=".87"/><g class="cls-9"><path d="M68.22 48.54c-3.23-.87-20.58 8.17-20.58 8.17s-11.06-9.32-16.52-31.07l23.65-9.91 13.46 32.81Z" class="cls-8"/></g><path d="M58.34 59.83c-.22 0-.44-.06-.63-.19-9.26-6.2-17.66-19.18-20.42-31.57-.13-.55.15-1.11.66-1.33 1.17-.53 5.43-2.36 10.36-4.49 8.45-3.64 18.97-8.16 21.13-9.21.15-.08.32-.11.49-.11.47 0 .89.3 1.06.74 4.06 10.67 10.82 19.18 15.78 24.44.33.34.39.86.17 1.27-1.77 3.31-7.67 10.88-8.02 11.23-.1.13-.23.24-.39.31l-19.74 8.79c-.15.07-.3.1-.46.1v.02Z" class="cls-4"/><path d="M69.93 13.73c.15 0 .28.09.33.23 4.12 10.86 11 19.48 15.95 24.72.08.09.1.22.04.33-1.76 3.29-7.61 10.77-7.88 11.05-.05.05-.08.12-.15.15l-19.74 8.78s-.1.03-.15.03a.33.33 0 0 1-.19-.06c-8.71-5.83-17.28-18.51-20.08-31.08-.04-.17.05-.34.2-.41 3.13-1.41 28.03-12.03 31.52-13.71q.075-.03.15-.03m0-1.6c-.29 0-.57.07-.83.19-2.16 1.04-12.67 5.57-21.12 9.21-4.93 2.13-9.19 3.96-10.36 4.49-.84.38-1.3 1.31-1.1 2.22C39.32 40.81 47.86 54 57.27 60.3c.55.37 1.26.43 1.86.15l19.72-8.79c.28-.13.52-.32.71-.57-.02.03-.05.05-.07.08.35-.36 6.3-7.95 8.15-11.41.39-.72.27-1.61-.29-2.2-4.91-5.21-11.61-13.64-15.62-24.18-.29-.75-1-1.25-1.8-1.25" class="cls-8"/><path d="M58.34 60.89c-.43 0-.85-.13-1.21-.37-9.47-6.32-18.05-19.59-20.86-32.23-.23-1.03.29-2.08 1.25-2.52 1.19-.54 5.44-2.37 10.37-4.49 8.47-3.66 18.96-8.16 21.1-9.2a2.19 2.19 0 0 1 2.93 1.04c.03.05.05.11.07.16 4.01 10.5 10.67 18.9 15.55 24.1.64.67.77 1.69.33 2.51-1.77 3.33-7.27 10.39-8.1 11.37-.21.28-.48.5-.8.64l-19.72 8.78c-.28.13-.59.19-.89.2Zm11.6-48.49c-.25 0-.49.06-.72.16-2.16 1.04-12.65 5.57-21.1 9.2-4.95 2.14-9.21 3.97-10.39 4.5-.73.33-1.13 1.13-.95 1.92 2.79 12.51 11.28 25.62 20.64 31.9.48.32 1.09.37 1.61.13l19.73-8.78c.21-.1.4-.24.55-.43l.05-.06c.68-.79 6.26-7.96 8.06-11.29.33-.62.23-1.38-.25-1.89-4.93-5.23-11.65-13.68-15.67-24.27-.25-.65-.86-1.08-1.55-1.09Zm-11.6 46.89c-.12 0-.23-.04-.33-.1-9.15-6.13-17.48-18.96-20.19-31.24a.62.62 0 0 1 .35-.71c1.17-.53 5.42-2.36 10.35-4.48 8.46-3.64 18.98-8.18 21.16-9.23.31-.14.68 0 .82.31 0 0 0 .02.01.03 4.09 10.75 10.9 19.32 15.89 24.62.17.18.2.45.08.67-1.75 3.28-7.58 10.76-7.91 11.11a.55.55 0 0 1-.23.2L58.6 59.26c-.09.04-.18.05-.28.05Zm-.04-.55h.08l19.74-8.79s.04-.06.07-.09c.19-.2 6.07-7.69 7.84-10.98-5.03-5.36-11.89-14-16-24.83a.09.09 0 0 0-.1-.06h-.01c-2.19 1.06-12.72 5.59-21.18 9.24-4.93 2.12-9.18 3.95-10.34 4.48a.1.1 0 0 0-.05.11c2.71 12.14 10.92 24.86 19.97 30.92Z" class="cls-8"/><path d="M58.17 44.68c-2.16 0-3.78-.78-4.96-2.4l-.02-.02v-.03c-.6-1.18-1.08-2.41-1.42-3.69-.43-1.55-.18-4.05-.17-4.16v-.04c.8-4.17 4.85-7.57 9.03-7.57 2.08.02 4.08.83 5.61 2.26 2.17 2.07 6.64 10.15 5.43 13.22-.22.56-.74 1.23-1.93 1.23-.34 0-.68-.05-1-.13-.45-.11-.91-.16-1.37-.15-1.35 0-2.83.35-4.4.72s-3.25.77-4.79.77Z" class="cls-2"/><path d="M60.62 27.26c1.96.02 3.85.78 5.28 2.13 2.7 2.57 8.24 13.6 3.83 13.6-.3 0-.6-.04-.89-.12-.49-.11-.98-.17-1.48-.16-2.84 0-6.23 1.5-9.18 1.5-1.75 0-3.35-.53-4.57-2.2-.58-1.14-1.04-2.34-1.38-3.58-.41-1.48-.15-3.98-.15-3.98.75-3.89 4.5-7.19 8.55-7.19m0-.99c-4.45 0-8.64 3.5-9.5 7.97v.09c-.03.27-.26 2.73.18 4.34.35 1.31.84 2.58 1.46 3.79l.03.06.04.05c1.28 1.75 3.03 2.6 5.34 2.6 1.6 0 3.27-.4 4.89-.78 1.54-.36 2.99-.71 4.29-.71.42 0 .85.04 1.26.14.37.09.74.14 1.12.15 1.14 0 1.99-.55 2.38-1.54 1.32-3.36-3.36-11.68-5.54-13.75a8.89 8.89 0 0 0-5.94-2.4h-.01Z" class="cls-8"/><path d="M53.35 42.08c-.17 0-.32-.07-.45-.18-1.39-1.4-1.89-4.49-1.99-6.35l-2.57-.2a.586.586 0 0 1-.53-.52c-.25-1.98 1.22-3.87 1.28-3.95.11-.14.28-.22.46-.22.1 0 .21.03.3.08.48.3 1.19.81 1.83 1.31 1.19-2.5 3.89-4.53 5.64-4.64l.08 1.17c.25-.01.46-.2.5-.45v.1c0 .94-.37 1.84-1.03 2.49.43.46.83.96 1.17 1.5a.6.6 0 0 1-.13.78l-.3.25c-.48.38-.96.77-1.45 1.13.51.65 1.08 1.42 1.21 2.23a.61.61 0 0 1-.3.6c-.73.45-1.51.82-2.32 1.09.33.99.21 2.08-.33 2.97-.12.19-.56.82-1.08.82Z" class="cls-6"/><path d="M57.37 27.98c-.17 0 .32 1.39-1.34 2.7.57.55 1.08 1.17 1.52 1.83-.72.58-1.48 1.2-2.25 1.72.55.7 1.34 1.59 1.48 2.45-.93.53-1.76.99-2.81 1.18 1.02 2.28-.37 3.62-.64 3.62h-.03c-1.27-1.28-1.81-4.53-1.84-6.48l-3.09-.24c-.22-1.76 1.16-3.51 1.16-3.51.83.54 1.62 1.12 2.39 1.74.85-2.57 3.69-4.89 5.43-5m0-1.18h-.09c-1.98.13-4.45 2.08-5.79 4.35-.56-.42-1.01-.73-1.34-.93-.18-.11-.38-.17-.59-.17-.36 0-.69.17-.92.45-.17.22-1.67 2.2-1.4 4.39.07.56.52.98 1.07 1.03l2.08.16c.17 1.96.74 4.82 2.12 6.22.23.23.54.36.86.36.79 0 1.36-.76 1.57-1.09.53-.86.72-1.9.53-2.9q1.005-.405 1.92-.96c.43-.25.65-.73.57-1.22-.16-.74-.49-1.43-.96-2.01.34-.26.67-.53.99-.79l.3-.25c.47-.38.58-1.05.26-1.56-.27-.41-.57-.8-.89-1.17.53-.69.82-1.53.83-2.4a1.174 1.174 0 0 0-1.12-1.52Z" class="cls-8"/><ellipse cx="59.47" cy="40.75" class="cls-8" rx=".77" ry=".78"/><ellipse cx="60.77" cy="35.49" class="cls-8" rx=".77" ry=".78"/><ellipse cx="61.75" cy="30.92" class="cls-8" rx=".77" ry=".78"/><ellipse cx="64.18" cy="39.8" class="cls-8" rx=".77" ry=".78"/><ellipse cx="65.34" cy="34.68" class="cls-8" rx=".77" ry=".78"/><path d="m74.4 31.32 11.33-18.3s5.49-.79 8.74 5.51L82.35 36.64l-9.51 6.53 1.57-11.85Z" style="fill:#ffd15f"/><path d="M81.72 33.14c-.8-1.1-1.88-1.96-3.14-2.48-1.33-.39-2.72-.52-4.09-.38l-3.27 13.31c-.23 1.05 1.52 1.81 2.35 1.12l9.65-8.06.03-.04c-.39-.92-.94-2.69-1.53-3.48Z" style="fill:#e1feff"/><path d="M82.9 19.86c.97.17 1.88.61 2.62 1.26.56.33 1.11.7 1.63 1.1 1.13.89 3.42 2.1 3.63 3.49l4.59-8.54c-1.87-7.39-8.76-5.5-8.76-5.5l-4.95 7.75c.42.12.84.26 1.25.42Z" class="cls-2"/><path d="M88.57 12.04c1.08.02 2.13.35 3.03.96 1.73 1.1 3.23 3.38 2.83 5.53L82.31 36.64l-10.46 8.7 2.56-14.03 11.32-18.3c.81-.65 1.82-1 2.86-1m-.02-2.27c-1.59 0-3.13.56-4.36 1.57l-.22.2-.16.26-11.32 18.3-.27.43-.07.5-2.45 14.17c-.33 1.33 1.13 2.64 2.74 1.42l11.13-8.11.35-.24.24-.36L96.3 19.79l.26-.39.08-.46c.63-3.33-1.54-6.44-3.83-7.88a7.83 7.83 0 0 0-4.24-1.32" class="cls-8"/><path d="m83.57 36.64-.91.41c0-2.47-1.37-4.66-2.72-5.54-2.84-1.83-6.55-.67-6.59-.64l.44-1.1c.15-.06 3.55-1.33 6.71.71 1.54.99 3.08 3.43 3.08 6.17Z" class="cls-8"/><path d="M90.35 18.78c-1.53-2-4.24-2.81-6.67-2.48l-2.71 4.23c2.59.78 6.31 2 7.91 4.27.45.64.83.74 1.12 1.47l2.66-4.66c-.16-1.36-1.47-1.75-2.31-2.83" style="fill:#00beea"/><path d="M89.23 27.71c-1.22-2.88-3.13-4.76-5.68-5.58-1.31-.37-2.68-.5-4.04-.38l-.17-1.22c.07 0 7.77-1.62 11.04 6.1l-1.14 1.08ZM93.73 21.81c-3.25-6.13-8.21-6.49-9.85-6.62-.14 0-.3-.02-.33-.03l-.08.26-1.15-.16.29 1.03.06.07c.25.31.57.33 1.11.38 1.57.12 5.75.44 8.6 5.8l.21.41 1.37-.74-.22-.41Z" class="cls-8"/><path d="m80.37 31.38-.92-.49 5.81-8.64.91.48zM71.79 38.47s4.21.31 4.84 3.38l-5.77 4.2z" class="cls-8"/><path d="M78.56 50.78s1.89-4.6-.54-11.79c0 0 4.51-1.96 9.29-.59 0 0-2.43 7.46-8.75 12.38" class="cls-4"/><path d="M78.56 51.44a.654.654 0 0 1-.58-.91c.03-.07 1.75-4.5-.56-11.31a.67.67 0 0 1 .36-.82c.19-.08 4.78-2.03 9.72-.62.35.1.55.48.44.83-.1.31-2.57 7.71-8.97 12.7-.12.09-.26.13-.41.12Zm.27-12.05c1.32 4.26 1.19 7.58.86 9.57 4-3.75 6.08-8.39 6.76-10.09-3.3-.72-6.39.12-7.62.53Z" class="cls-8"/></svg>