<svg xmlns="http://www.w3.org/2000/svg" xmlns:xlink="http://www.w3.org/1999/xlink" width="29" height="24"><defs><path id="a" d="M.714.4h11.145v10.442H.714z"/></defs><g fill="none" fill-rule="evenodd"><path fill="#E7E0FF" d="M16.603 12.178a2.82 2.82 0 1 1-5.642-.002 2.82 2.82 0 0 1 5.641.002M25.688 2.821a2.82 2.82 0 1 1-5.642-.002 2.82 2.82 0 0 1 5.642.002M6.762 20.817a2.82 2.82 0 1 1-5.64 0 2.82 2.82 0 0 1 5.64 0M6.914 3.988h11.95l-.07-.324a4 4 0 0 1-.09-.843q0-.59.178-1.169l.105-.348H6.914c-.74 0-1.342.603-1.342 1.342s.602 1.342 1.342 1.342"/><g transform="translate(17 2.638)"><mask id="b" fill="#fff"><use xlink:href="#a"/></mask><path fill="#E7E0FF" d="M10.423.827 10.062.4l-.107.548a4.15 4.15 0 0 1-1.058 2.06l-.125.134.079.165c.216.456.325.937.325 1.429a3.4 3.4 0 0 1-3.4 3.389l-5.062.032.09.335q.14.521.14 1.047c0 .324-.04.649-.118.967l-.082.335 5.04-.034a6.08 6.08 0 0 0 6.076-6.071 6.04 6.04 0 0 0-1.437-3.91" mask="url(#b)"/></g><path fill="#E7E0FF" d="M9.751 13.197a4 4 0 0 1-.009-2.013l.086-.336-3.756.024A6.08 6.08 0 0 0 0 16.943c0 .436.047.87.141 1.294l.127.574.349-.471a4.14 4.14 0 0 1 1.901-1.418l.163-.059.012-.173c.131-1.759 1.62-3.135 3.391-3.135l3.754-.024zM21.945 20.33H8.082l.015.285q.006.103.006.203c0 .634-.143 1.242-.426 1.809l-.194.388h14.462c.74 0 1.342-.602 1.342-1.342s-.602-1.342-1.342-1.342"/></g></svg>