<svg xmlns="http://www.w3.org/2000/svg" xmlns:xlink="http://www.w3.org/1999/xlink" width="30" height="29"><defs><path id="a" d="M0 .791h9.798v10.053H0z"/><path id="c" d="M.742.925h9.847V11.03H.742z"/><path id="e" d="M.553.98h22.531V26H.554z"/></defs><g fill="none" fill-rule="evenodd"><path fill="#E7E0FF" d="M6.147 1.34c.024.048.035.051.028 0a.1.1 0 0 0-.028 0"/><g transform="translate(0 -.79)"><mask id="b" fill="#fff"><use xlink:href="#a"/></mask><path fill="#E7E0FF" d="M2.338 10.607c.589-2.076 1.716-3.883 3.352-5.37a11.3 11.3 0 0 1 3.89-2.316.324.324 0 0 0 .062-.583C8.762 1.81 7.592 1.215 6.47.886c-1.412-.344-3.134.26-4.542 1.515l-.011-.008C-1.32 5.71.186 8.376 1.757 10.701a.325.325 0 0 0 .58-.094" mask="url(#b)"/></g><g transform="translate(19 -.79)"><mask id="d" fill="#fff"><use xlink:href="#c"/></mask><path fill="#E7E0FF" d="M8.24 10.792C7.648 8.706 6.514 6.89 4.871 5.395A11.35 11.35 0 0 0 .962 3.067a.325.325 0 0 1-.063-.585c.884-.532 2.059-1.129 3.188-1.461 1.419-.345 3.149.261 4.564 1.524l.011-.009c3.254 3.333 1.741 6.013.162 8.35a.326.326 0 0 1-.584-.094" mask="url(#d)"/></g><g transform="translate(3 2.21)"><mask id="f" fill="#fff"><use xlink:href="#e"/></mask><path fill="#E7E0FF" d="M11.816 20.363c-4.483.007-8.119-3.67-8.112-8.15.007-4.428 3.69-8.09 8.13-8.083 4.456.006 8.111 3.662 8.104 8.1a8.116 8.116 0 0 1-8.122 8.133m11.252-8.727c-.148-2.902-1.284-5.403-3.37-7.428C15.391.03 8.667-.102 4.294 3.874 2.698 5.327 1.582 7.082.992 9.162s-.586 4.16.02 6.234a11.1 11.1 0 0 0 2.502 4.435c-.425 1.196-2.172 4.392-2.09 4.845.115.63 1.197 1.765 2.173 1.144.782-.497 2.87-2.567 3.584-3.307 3.072 1.332 6.132 1.343 9.208.033.714.738 2.783 2.784 3.552 3.274.978.621 2.06-.515 2.173-1.144.081-.442-1.632-3.55-2.06-4.762 2.117-2.302 3.177-5.049 3.014-8.278" mask="url(#f)"/></g><path fill="#E7E0FF" d="M18.72 13.816h-2.398a1.4 1.4 0 0 0-.442-.448V9.153a.749.749 0 1 0-1.497 0v4.203a1.409 1.409 0 1 0 1.926 1.957h2.411a.748.748 0 0 0 0-1.497"/></g></svg>