<svg xmlns="http://www.w3.org/2000/svg" width="30" height="22"><g fill="#E7E0FF" fill-rule="evenodd"><path d="M26.083 11.218c-.159.335-3.949 7.436-11.467 7.436-7.732 0-11.06-7.184-11.197-7.49l-.198-.44.187-.446c.133-.303 3.293-7.37 11.208-7.37 7.126 0 11.261 6.927 11.434 7.204l.328.544zm2.832-2.032-.329-.54C28.05 7.756 23.122 0 14.616 0 6.611 0 2.006 6.012.674 9.19l-.188.446L0 10.811l.515 1.164.194.44c.17.36 4.22 9.251 13.907 9.251 9.082 0 13.603-8.08 14.086-9.007l.295-.562.782-1.48z"/><path d="m19.901 8.708-.216-.144a2.338 2.338 0 0 1-4.518-.804 2.29 2.29 0 0 1 1.535-2.143 5.508 5.508 0 1 0 3.199 3.09"/></g></svg>