<svg xmlns="http://www.w3.org/2000/svg" xml:space="preserve" id="Camada_1" x="0" y="0" version="1.1" viewBox="0 0 186 108"><style>.st1{fill:#31024f}</style><path d="M179 86.2V86l-3.8-12.8c-.2-.7-.4-1.3-.8-1.9.1-.8 0-1.6-.2-2.4v-.1l-1.9-6.4c-.2-.7-.4-1.4-.8-2 .1-.8 0-1.6-.2-2.3V58l-2-7c-.8-3.5-3.9-7.6-7.5-7.6H157l1.5-12.9c-.3-3.7-1.1-7.3-1.7-9.8-.1-.5-.2-1-.3-1.3-.5-2.4-2.1-4.4-4.4-5.5-5.8-2.7-57.3-23.6-116.3-.2-2.3.9-3.9 3.1-4.4 5.5-.4 1.8-1.2 7-1.3 11.9l1.4 12.4h-6.3c-3.7 0-6.8 4.2-7.6 7.8L7 84.9v.1c-.5 2.3.1 4.6 1.6 6.4.3.3.6.7.9 1 .5.5 3.4 1.4 8.8 4.3 3.4 1.8 8.7 3.7 10.7 4.7 1 .5 2 .7 3.1.7 1.2 0 2.3-.3 3.4-.9l8.5-3.9.4-.2c.7-.4 1.3-1 1.7-1.7v1.4c0 1.8.7 3.7 1.8 5.3 1.5 2.1 3.6 3.2 5.7 3.2h80c2.2 0 4.3-1.2 5.7-3.4 1-1.5 1.5-3.4 1.5-5.1v-1l9.1 5.8.9.1c.4.1.8.1 1.2.1h.4c1 0 24.5-8.3 25.1-9.2 1.5-1.7 2-4.1 1.5-6.4" style="fill:#fff"/><path d="M83.7 32.3q-.9 0-1.5.6c-.4.4-.6 1-.6 1.5 0 1.2 1 2.2 2.2 2.2s2.2-1 2.2-2.2c-.1-1.1-1.1-2.1-2.3-2.1" class="st1"/><path d="m86.2 42.5.2-.1.2.1c.5.2 1.1.4 1.7.4.8 0 1.5-.2 2.2-.6l.3-.2.3.2c.4.2.8.4 1.2.5 1.2.3 2.3.1 3.4-.5 1.3-.8 2.1-2.3 2.1-3.8v-2.8l1.5-.1-.2 3.2c0 2.4 2.1 4.4 4.5 4.4 1.2 0 2.3-.5 3.1-1.4l.4-.4.4.4c.8.8 1.9 1.2 3.1 1.2 1.3 0 2.5-.6 3.4-1.6l.4-.4.4.3c1.5 1.2 3.4 1.8 5.2 1.8 2.3 0 4.6-1 6.3-2.7 1.7-1.8 1.7-3.5 1.5-4.5-.1-.6-.4-1.1-.7-1.6l-.2-.3.2-.3c.9-1.6.6-3.7-.6-5.1l-.3-.3c-1.6-1.6-3.9-2.5-6.1-2.5-1.5 0-2.9.4-4.1 1.1l-.8.5-.1-.9c-.1-2.3-2.1-4.2-4.4-4.2-1.5 0-2.9.8-3.7 2.1l-.3.5-.5-.4c-.8-.6-1.8-.8-2.7-.8-1.6.1-3.1 1-3.8 2.5l-.2.4-.5-.3c-.5-.1-.8-.2-1.3-.2-.7 0-1.4.1-2 .3l-.2.1-.2-.1c-1.3-.6-2.9-.5-4.2.3l-.3.2-.3-.2c-1.2-.6-2.7-.7-3.9-.2l-.2.1-.2-.1c-2-.9-4.9-.5-7 .8l-.7.4-.3-.7c-.2-.7-.6-1.4-1.1-1.9-2.2-2.4-5.2-2.7-7.6-2.7-5.6 0-10.2 4.6-10.2 10.2s4.6 10.2 10.2 10.2c2.7 0 5.2-1 7-2.7l.4-.4.4.4c1.6 1.7 3.9 2.7 6.2 2.7q1.5.15 2.7-.3m29.2-11.6c.9-1.3 2.3-2.2 3.9-2.5.4-.1.7-.1 1.1-.1 1.2 0 2.4.4 3.4 1.1.3.2.6.4.8.7l.2.2c.7.7.6 1.9-.1 2.5-.7.7-1.9.6-2.5-.1 0 0-.8-.8-1.8-.8-1.4.1-2.4 1.1-2.4 2.4s1.1 2.4 2.4 2.4c.8 0 1.5-.4 2-1 .6-.8 1.7-1 2.5-.4s1 1.7.4 2.5c-1.9 2.7-5.7 3.3-8.4 1.5-2.7-1.9-3.4-5.7-1.5-8.4m-6.3-4.3c0-.5.2-.9.5-1.3.3-.3.8-.5 1.3-.5 1 0 1.8.8 1.8 1.8v.1c0 .5-.2.9-.5 1.3-.3.3-.8.5-1.3.5-1 0-1.8-.9-1.8-1.9m0 5c0-1 .8-1.8 1.7-1.8h.2c.9.1 1.7.8 1.7 1.8v6.9c0 .5-.2.9-.5 1.3-.3.3-.8.5-1.3.5-1 0-1.7-.8-1.8-1.8zm-7.4-2.6h.3v-1c0-.5.2-.9.5-1.3.3-.3.8-.5 1.3-.5 1 0 1.8.8 1.8 1.8v1.1h.3c1 0 1.8.8 1.8 1.8s-.8 1.7-1.7 1.8h-.4v6.2c0 .5-.2.9-.5 1.3-.3.3-.8.5-1.3.5-1 0-1.8-.8-1.8-1.8v-6.3h-.30000000000000004c-1 0-1.8-.8-1.8-1.8 0-.9.8-1.7 1.8-1.8m-9.9 1.4c0-1 .8-1.8 1.8-1.8.5 0 1.3.3 1.4 1.2v.3l.2-.2c.8-.8 1.7-1.1 2.3-1.1.4 0 .7 0 1.1.1.2 0 .3.1.4.2-.7 1-.7 2.3-.1 3.4-.2.1-.5.2-.7.2H98c-.6 0-1.1 0-1.3.1-1.3.3-1.4 1.7-1.4 2.3v3.3c0 1-.8 1.8-1.8 1.8s-1.7-.8-1.8-1.8v-8zm-15.9 6.5c-1.3 2.1-3.5 3.3-6.2 3.3-4.2 0-7.6-3.4-7.6-7.6s3.4-7.6 7.6-7.6c1.8 0 4.1.2 5.7 1.8.7.7.6 1.9-.1 2.5-.3.3-.6.4-1 .4-.5 0-1.1-.2-1.6-.5-1.3-.6-2.1-.7-2.7-.7h-.4c-2.2 0-4 1.8-4 4s1.8 4 4 4c1 0 2.3-.3 3.2-1.6l.2-.2h-2.2c-.5.1-1-.1-1.3-.4-.4-.3-.6-.7-.7-1.2s.1-1 .4-1.3c.3-.4.7-.6 1.2-.7h3.3c.9 0 1.8.6 2.3 1.5.6 1.1.8 2.8-.1 4.3m2.1-2.5c0-3.1 2.6-5.7 5.7-5.7 1.1 0 2 .3 2.8 1.2l.2.2.1-.2c.3-.6.9-1 1.7-1 1 0 1.8.8 1.8 1.8v7.8c0 1-.8 1.8-1.8 1.8-.6 0-1.2-.4-1.5-1.1l-.1-.2h-.1c-.6.7-1.7 1.2-3 1.2-1.5 0-3-.6-4.1-1.7S78 35.9 78 34.4M55.6 34.8c-.5.7-1.2 1.1-2 1.2l-16.4 3.7c-.8.1-1.5-.1-2.2-.5l.8 3.9c.4 1 1.5 1.6 2.6 1.5l15.7-3.5c1.4-.2 2.1-2.2 1.8-3.6zM151.8 39l-16-3.4c-.8-.1-1.5-.6-2-1.2l-.1-.8-.9 5.4c-.3 1.4.6 2.5 2 2.8L150 45c1.1.2 2.2-.4 2.6-1.5l1.2-4.9c-.4.4-1.2.6-2 .4" class="st1"/><path d="M152.5 20.1c-.2-1.1-1-2.1-2-2.6-5.2-2.4-25.1-9.6-50.6-11.1l-2.4 2 6.3 1.7L93 16.4l3.5-4.6-7.7-.8 2.6-4.8C64.5 7.3 43 14.9 37.6 17.3c-1 .5-1.8 1.4-2 2.6-.6 2.6-1.6 10.5-1.1 15.5.1 1.1 1.1 1.9 2.2 1.7l16.4-3.7c1.2-.2 1.9-1.5 1.5-2.6-.6-1.6-1.4-6.6-1.5-6.5 3.4-2.3 27.8-4.9 40.9-4.4 15.3 0 35.1 2.8 42.4 4.9-.6.8-1.5 4.9-1.6 5.6-.2 1.2.3 2.4 1.5 2.6l16 3.4c1.1.2 2.1-.6 2.2-1.7.4-5-1.5-12-2-14.6M136.6 88.1c-.3 1.4-1.6 2.1-3.2 2.1h-80c-1.6 0-2.9-.8-3.2-2.3v8.9c0 1.8 1.6 4.3 3.4 4.3h80c1.8 0 3.1-2.6 3.1-4.3zq0 .15 0 0M87.7 58.6c.7-.8.7-2.1-.2-2.9-.8-.7-2.1-.7-2.9.2-.7.8-.7 2.1.2 2.9.9.7 2.2.6 2.9-.2M85.5 63.3c0-1.1-.9-2-2-2s-2 .9-2 2 .9 2 2 2c1.1.1 2-.8 2-2M93 69.8c-1.1 0-2 .9-2 2s.9 2 2 2 2-.9 2-2-.9-2-2-2M93 56.8c1.1 0 2-.9 2-2s-.9-2-2-2-2 .9-2 2c-.1 1.1.8 2 2 2M39.3 59.6h-5.6c-.3 0-.5.2-.5.4 0 0-2.1 9.5-2 9.7.1.1 6.9-.5 6.9-.5.6 0 1.1-.4 1.2-1l1.2-7.1c.1-.4 0-.7-.3-1-.2-.4-.6-.5-.9-.5M100.8 58.6c.7-.8.7-2.1-.2-2.9-.8-.7-2.1-.7-2.9.2-.7.8-.7 2.1.2 2.9.9.7 2.2.6 2.9-.2M84.7 67.9c-.7.8-.7 2.1.2 2.9s2.1.7 2.9-.2c.7-.8.7-2.1-.2-2.9-.9-.7-2.2-.6-2.9.2" class="st1"/><ellipse cx="92.9" cy="63.2" class="st1" rx="5" ry="4.4"/><path d="M100.6 63.3c0 1.1.9 2 2 2s2-.9 2-2-.9-2-2-2-2 .9-2 2M97.8 67.9c-.7.8-.7 2.1.2 2.9.8.7 2.1.7 2.9-.2.7-.8.7-2.1-.2-2.9-.9-.7-2.2-.6-2.9.2" class="st1"/><path d="m175 87.1-3.7-12.7c-.2-.8-.7-1.6-1.3-2.1.4-.8.5-1.6.3-2.5l-1.9-6.4c-.2-.8-.7-1.6-1.3-2.1.4-.7.5-1.6.3-2.4l-2-7c-.4-1.7-1.8-2.8-3.5-2.8h-23.5c-1.2 0-2.3.3-3.2 1-.7-.6-1.5-1-2.5-1h-9.3l-.6-1.6c-.2-1.3-1.3-2.6-2.6-2.6H64.8c-1.3 0-2.4.9-2.6 2.1l-.7 2.1c-.5-.2-6.9 0-6.9 0-.9 0-1.8.3-2.4.9-.9-.6-2-.9-3.1-.9H25.4c-1.7 0-3.2 1.2-3.5 2.9L11 85.9c-.2 1.1.1 2.2.8 3 .2.2.4.4.6.5.9 1 14.1 6.2 18.5 8.3.9.4 2 .4 2.9-.2l8.4-3.8c.4-.3.6-.7.7-1.1l.3-2.6c.1-.1 3.6-1.7 3.7-1.7 1.1-.5 1.3-1.3 1.3-2.2v-1.9c0-1 .6-2.4 2.4-2.9 0 1.4.5 3.6 1.3 4.5.7.8 1.6 1.2 2.5 1.2h78.3c.9 0 1.8-.4 2.5-1.1.7-.8.8-3.4 1-4.5.1.1 2.4 0 2.4 2.5l.3 2.8c.1 1.1-.2 2.1 1.7 3.6l9.8 6.6c.7.5 2.3 1.5 3.3.9.3-.2 20.5-7.4 20.6-7.6.6-.9.9-2 .7-3.1M45.7 74.9c-.2 1.2-1.1 2.1-2.4 2.3-8.9 1.3-14.9 1.3-14.9 1.6l-1.1 4.6c-.2 1-1 1.7-1.9 1.8l-11.2 1L25 52.4h23.7c.6 0 1.2.3 1.6.7.4.5.6 1.1.5 1.7zm27.9-.6-9.1.9.9-5.8v-.1c0-.3-.3-.5-.6-.5h-3.3c-.3 0-.5.2-.5.5l-1.2 6.5-11.1.8 5.6-24.1h9.6l-1.2 6.9c0 .2 0 .3.1.5.1.1.3.2.4.2h3.3c.1 0 .3 0 .4-.1s.2-.2.2-.3l1.3-7.1h9zm19.3 2.8c-8.2 0-14.8-5.9-14.8-13.2s6.6-13.2 14.8-13.2 14.8 5.9 14.8 13.2c.1 7.3-6.6 13.2-14.8 13.2m33.5-.5-4.6-7.5-.1-.1h-.1l-.2-.1h-1.8l-.2.1s-.1 0-.1.1l-.1.2s0 .1-.1.1v.2l1.1 6.4-7.7-.7-3.4-22.2h9.6l4.8 7.1c.2.3 1.9.3 2.2 0 .1-.1.1-.3.1-.5l-1.3-6.6h8.1l6.2 24.7zm18.1 6.3c-.9-.1-1.6-.8-1.7-1.7L136 55c-.1-.6 0-1.3.4-1.7.4-.5 1-.8 1.6-.8h23.5l2 6.9h-12.4c-.2 0-.3.1-.4.2s-.1.3-.1.5l.7 3.4c.1.3.3.4.5.4h12.7l1.9 6.5h-12.6c-.2 0-.3.1-.4.2s-.1.3-.1.5l.7 3.4c.1.3.3.5.5.5h12.9l3.8 12.4zM43 74.5" class="st1"/></svg>