<svg xmlns="http://www.w3.org/2000/svg" xmlns:xlink="http://www.w3.org/1999/xlink" width="14" height="11"><defs><path id="a" d="M0 0h14v11H0z"/></defs><g fill="none" fill-rule="evenodd" opacity=".7"><mask id="b" fill="#fff"><use xlink:href="#a"/></mask><path fill="#FFF" d="M12.209 0q.685 0 1.239.405.551.408.552 1.025 0 .302-.173.62L8.8 10.01a1.7 1.7 0 0 1-.742.733A2.3 2.3 0 0 1 6.99 11a2.3 2.3 0 0 1-1.066-.257 1.7 1.7 0 0 1-.743-.732L.153 2.05A1.3 1.3 0 0 1 0 1.43Q0 .829.572.414 1.142 0 1.847 0z" mask="url(#b)"/></g></svg>